<?xml version="1.0" encoding="iso-8859-1"?>
<!-- Generator: Adobe Illustrator 19.0.0, SVG Export Plug-In . SVG Version: 6.00 Build 0)  -->
<svg version="1.1" id="Layer_1" xmlns="http://www.w3.org/2000/svg" xmlns:xlink="http://www.w3.org/1999/xlink" x="0px" y="0px"
	 viewBox="0 0 489.8 489.8" style="enable-background:new 0 0 489.8 489.8;" xml:space="preserve">
<g>
	<g>
		<path style="fill:#2C2F33;" d="M462.1,121.3H310.5V9.9c0-5.5-4.4-9.9-9.9-9.9H27.7c-5.5,0-9.9,4.4-9.9,9.9v470
			c0,5.5,4.4,9.9,9.9,9.9h272.9h161.5c5.5,0,9.9-4.4,9.9-9.9V131.2C472,125.7,467.6,121.3,462.1,121.3z M290.7,131.2v338.9H37.6
			V19.8h253.1V131.2L290.7,131.2z M452.2,470H310.5V141h141.7V470z"/>
		<path style="fill:#3C92CA;" d="M349.1,191.3h64.5c5.5,0,9.9-4.4,9.9-9.9s-4.4-9.9-9.9-9.9h-64.5c-5.5,0-9.9,4.4-9.9,9.9
			C339.2,186.8,343.6,191.3,349.1,191.3z"/>
		<path style="fill:#3C92CA;" d="M349.1,241h64.5c5.5,0,9.9-4.4,9.9-9.9s-4.4-9.9-9.9-9.9h-64.5c-5.5,0-9.9,4.4-9.9,9.9
			S343.6,241,349.1,241z"/>
		<path style="fill:#3C92CA;" d="M349.1,290.6h64.5c5.5,0,9.9-4.4,9.9-9.9s-4.4-9.9-9.9-9.9h-64.5c-5.5,0-9.9,4.4-9.9,9.9
			S343.6,290.6,349.1,290.6z"/>
		<path style="fill:#3C92CA;" d="M349.1,340.3h64.5c5.5,0,9.9-4.4,9.9-9.9s-4.4-9.9-9.9-9.9h-64.5c-5.5,0-9.9,4.4-9.9,9.9
			S343.6,340.3,349.1,340.3z"/>
		<path style="fill:#3C92CA;" d="M349.1,389.9h64.5c5.5,0,9.9-4.4,9.9-9.9s-4.4-9.9-9.9-9.9h-64.5c-5.5,0-9.9,4.4-9.9,9.9
			C339.2,385.4,343.6,389.9,349.1,389.9z"/>
		<path style="fill:#3C92CA;" d="M349.1,439.6h64.5c5.5,0,9.9-4.4,9.9-9.9s-4.4-9.9-9.9-9.9h-64.5c-5.5,0-9.9,4.4-9.9,9.9
			S343.6,439.6,349.1,439.6z"/>
		<path style="fill:#2C2F33;" d="M83.5,97c5.5,0,9.9-4.4,9.9-9.9V65.2c0-5.5-4.4-9.9-9.9-9.9s-9.9,4.4-9.9,9.9v21.9
			C73.6,92.6,78,97,83.5,97z"/>
		<path style="fill:#2C2F33;" d="M137.3,97c5.5,0,9.9-4.4,9.9-9.9V65.2c0-5.5-4.4-9.9-9.9-9.9s-9.9,4.4-9.9,9.9v21.9
			C127.4,92.6,131.8,97,137.3,97z"/>
		<path style="fill:#2C2F33;" d="M191,97c5.5,0,9.9-4.4,9.9-9.9V65.2c0-5.5-4.4-9.9-9.9-9.9s-9.9,4.4-9.9,9.9v21.9
			C181.1,92.6,185.6,97,191,97z"/>
		<path style="fill:#2C2F33;" d="M244.8,97c5.5,0,9.9-4.4,9.9-9.9V65.2c0-5.5-4.4-9.9-9.9-9.9s-9.9,4.4-9.9,9.9v21.9
			C234.9,92.6,239.3,97,244.8,97z"/>
		<path style="fill:#2C2F33;" d="M83.5,164.8c5.5,0,9.9-4.4,9.9-9.9v-22c0-5.5-4.4-9.9-9.9-9.9s-9.9,4.4-9.9,9.9v22
			C73.6,160.3,78,164.8,83.5,164.8z"/>
		<path style="fill:#2C2F33;" d="M137.3,164.8c5.5,0,9.9-4.4,9.9-9.9v-22c0-5.5-4.4-9.9-9.9-9.9s-9.9,4.4-9.9,9.9v22
			C127.4,160.3,131.8,164.8,137.3,164.8z"/>
		<path style="fill:#2C2F33;" d="M191,164.8c5.5,0,9.9-4.4,9.9-9.9v-22c0-5.5-4.4-9.9-9.9-9.9s-9.9,4.4-9.9,9.9v22
			C181.1,160.3,185.6,164.8,191,164.8z"/>
		<path style="fill:#2C2F33;" d="M244.8,164.8c5.5,0,9.9-4.4,9.9-9.9v-22c0-5.5-4.4-9.9-9.9-9.9s-9.9,4.4-9.9,9.9v22
			C234.9,160.3,239.3,164.8,244.8,164.8z"/>
		<path style="fill:#2C2F33;" d="M83.5,232.5c5.5,0,9.9-4.4,9.9-9.9v-21.9c0-5.5-4.4-9.9-9.9-9.9s-9.9,4.4-9.9,9.9v21.9
			C73.6,228.1,78,232.5,83.5,232.5z"/>
		<path style="fill:#2C2F33;" d="M137.3,232.5c5.5,0,9.9-4.4,9.9-9.9v-21.9c0-5.5-4.4-9.9-9.9-9.9s-9.9,4.4-9.9,9.9v21.9
			C127.4,228.1,131.8,232.5,137.3,232.5z"/>
		<path style="fill:#2C2F33;" d="M191,232.5c5.5,0,9.9-4.4,9.9-9.9v-21.9c0-5.5-4.4-9.9-9.9-9.9s-9.9,4.4-9.9,9.9v21.9
			C181.1,228.1,185.6,232.5,191,232.5z"/>
		<path style="fill:#2C2F33;" d="M244.8,232.5c5.5,0,9.9-4.4,9.9-9.9v-21.9c0-5.5-4.4-9.9-9.9-9.9s-9.9,4.4-9.9,9.9v21.9
			C234.9,228.1,239.3,232.5,244.8,232.5z"/>
		<path style="fill:#2C2F33;" d="M83.5,300.3c5.5,0,9.9-4.4,9.9-9.9v-21.9c0-5.5-4.4-9.9-9.9-9.9s-9.9,4.4-9.9,9.9v21.9
			C73.6,295.8,78,300.3,83.5,300.3z"/>
		<path style="fill:#2C2F33;" d="M137.3,300.3c5.5,0,9.9-4.4,9.9-9.9v-21.9c0-5.5-4.4-9.9-9.9-9.9s-9.9,4.4-9.9,9.9v21.9
			C127.4,295.8,131.8,300.3,137.3,300.3z"/>
		<path style="fill:#2C2F33;" d="M191,300.3c5.5,0,9.9-4.4,9.9-9.9v-21.9c0-5.5-4.4-9.9-9.9-9.9s-9.9,4.4-9.9,9.9v21.9
			C181.1,295.8,185.6,300.3,191,300.3z"/>
		<path style="fill:#2C2F33;" d="M244.8,300.3c5.5,0,9.9-4.4,9.9-9.9v-21.9c0-5.5-4.4-9.9-9.9-9.9s-9.9,4.4-9.9,9.9v21.9
			C234.9,295.8,239.3,300.3,244.8,300.3z"/>
		<path style="fill:#2C2F33;" d="M83.5,368c5.5,0,9.9-4.4,9.9-9.9v-21.9c0-5.5-4.4-9.9-9.9-9.9s-9.9,4.4-9.9,9.9v21.9
			C73.6,363.6,78,368,83.5,368z"/>
		<path style="fill:#2C2F33;" d="M137.3,368c5.5,0,9.9-4.4,9.9-9.9v-21.9c0-5.5-4.4-9.9-9.9-9.9s-9.9,4.4-9.9,9.9v21.9
			C127.4,363.6,131.8,368,137.3,368z"/>
		<path style="fill:#2C2F33;" d="M191,368c5.5,0,9.9-4.4,9.9-9.9v-21.9c0-5.5-4.4-9.9-9.9-9.9s-9.9,4.4-9.9,9.9v21.9
			C181.1,363.6,185.6,368,191,368z"/>
		<path style="fill:#2C2F33;" d="M244.8,368c5.5,0,9.9-4.4,9.9-9.9v-21.9c0-5.5-4.4-9.9-9.9-9.9s-9.9,4.4-9.9,9.9v21.9
			C234.9,363.6,239.3,368,244.8,368z"/>
		<path style="fill:#2C2F33;" d="M83.5,435.8c5.5,0,9.9-4.4,9.9-9.9v-22c0-5.5-4.4-9.9-9.9-9.9s-9.9,4.4-9.9,9.9v22
			C73.6,431.3,78,435.8,83.5,435.8z"/>
		<path style="fill:#2C2F33;" d="M137.3,435.8c5.5,0,9.9-4.4,9.9-9.9v-22c0-5.5-4.4-9.9-9.9-9.9s-9.9,4.4-9.9,9.9v22
			C127.4,431.3,131.8,435.8,137.3,435.8z"/>
		<path style="fill:#2C2F33;" d="M191,435.8c5.5,0,9.9-4.4,9.9-9.9v-22c0-5.5-4.4-9.9-9.9-9.9s-9.9,4.4-9.9,9.9v22
			C181.1,431.3,185.6,435.8,191,435.8z"/>
		<path style="fill:#2C2F33;" d="M244.8,435.8c5.5,0,9.9-4.4,9.9-9.9v-22c0-5.5-4.4-9.9-9.9-9.9s-9.9,4.4-9.9,9.9v22
			C234.9,431.3,239.3,435.8,244.8,435.8z"/>
	</g>
</g>
<g>
</g>
<g>
</g>
<g>
</g>
<g>
</g>
<g>
</g>
<g>
</g>
<g>
</g>
<g>
</g>
<g>
</g>
<g>
</g>
<g>
</g>
<g>
</g>
<g>
</g>
<g>
</g>
<g>
</g>
</svg>
